<?xml version="1.0" encoding="UTF-8"?>
<!DOCTYPE svg PUBLIC "-//W3C//DTD SVG 1.1//EN" "http://www.w3.org/Graphics/SVG/1.1/DTD/svg11.dtd">
<svg xmlns="http://www.w3.org/2000/svg" version="1.1" width="470px" height="470px" style="shape-rendering:geometricPrecision; text-rendering:geometricPrecision; image-rendering:optimizeQuality; fill-rule:evenodd; clip-rule:evenodd" xmlns:xlink="http://www.w3.org/1999/xlink">
<g><path style="opacity:1" fill="#eeeeee" d="M 79.5,-0.5 C 83.1667,-0.5 86.8333,-0.5 90.5,-0.5C 112.329,5.66594 124.995,19.9993 128.5,42.5C 127.248,49.2974 125.748,55.9641 124,62.5C 153.39,89.0594 183.223,115.059 213.5,140.5C 239.889,120.198 267.055,119.198 295,137.5C 320.301,114.534 345.301,91.2002 370,67.5C 366.041,59.5475 363.207,51.0475 361.5,42C 365.24,19.7646 377.906,5.59791 399.5,-0.5C 403.167,-0.5 406.833,-0.5 410.5,-0.5C 417.214,1.24775 423.547,4.08108 429.5,8C 446.136,20.9084 451.303,37.4084 445,57.5C 431.997,81.9291 412.497,90.0957 386.5,82C 361.167,105.333 335.833,128.667 310.5,152C 325.687,172.602 328.687,194.935 319.5,219C 344.804,234.989 370.137,250.989 395.5,267C 396.833,267.667 398.167,267.667 399.5,267C 405.718,261.722 412.718,257.722 420.5,255C 445.769,255.954 462.102,268.454 469.5,292.5C 469.5,296.5 469.5,300.5 469.5,304.5C 464.339,323.827 452.006,335.994 432.5,341C 422.778,342.32 413.778,340.32 405.5,335C 399.356,330.853 393.856,326.02 389,320.5C 387.139,316.346 385.806,312.013 385,307.5C 384.73,299.902 384.563,292.402 384.5,285C 358.916,269.292 333.416,253.459 308,237.5C 292.043,254.89 272.209,263.057 248.5,262C 235.958,304.614 224.458,347.447 214,390.5C 220.021,395.523 225.688,400.856 231,406.5C 239.779,438.281 228.613,459.281 197.5,469.5C 193.5,469.5 189.5,469.5 185.5,469.5C 160.328,461.833 148.495,444.833 150,418.5C 152.836,410.663 156.336,403.163 160.5,396C 166.069,393.433 171.403,390.433 176.5,387C 182.197,385.377 187.697,383.544 193,381.5C 204.656,339.877 216.156,298.211 227.5,256.5C 216.118,249.288 206.451,240.122 198.5,229C 196.087,228.516 193.754,228.85 191.5,230C 156.5,243.833 121.5,257.667 86.5,271.5C 85.7103,287.91 79.377,301.744 67.5,313C 41.66,326.048 20.8266,320.548 5,296.5C 2.87866,292.008 1.37866,287.342 0.5,282.5C -0.75466,267.508 4.24534,255.008 15.5,245C 38.2609,228.81 58.7609,231.31 77,252.5C 114.305,237.343 151.805,222.676 189.5,208.5C 185.388,190.111 188.388,172.944 198.5,157C 168.854,130.69 139.187,104.356 109.5,78C 104.516,80.4734 99.1826,82.4734 93.5,84C 87.4977,84.7587 81.4977,85.092 75.5,85C 69.6688,81.9188 64.0021,78.5855 58.5,75C 48.2061,66.2442 42.8728,55.0775 42.5,41.5C 45.6467,19.3561 57.98,5.35612 79.5,-0.5 Z"/></g>
<g><path style="opacity:1" fill="#ffffff" d="M 78.5,21.5 C 101.989,20.1279 110.489,30.7946 104,53.5C 97.9264,62.7514 89.4264,65.9181 78.5,63C 68.7632,59.7124 63.7632,52.8791 63.5,42.5C 63.8795,32.036 68.8795,25.036 78.5,21.5 Z"/></g>
<g><path style="opacity:1" fill="#ffffff" d="M 397.5,21.5 C 420.197,19.2675 429.364,29.2675 425,51.5C 423.226,56.2729 420.06,59.7729 415.5,62C 402.871,66.6579 393.038,63.4913 386,52.5C 380.968,38.6067 384.802,28.2733 397.5,21.5 Z"/></g>
<g><path style="opacity:1" fill="#ffffff" d="M 248.5,145.5 C 268.964,143.822 285.13,151.155 297,167.5C 304.433,182.052 305.433,197.052 300,212.5C 292.997,227.767 281.164,236.934 264.5,240C 236.67,242.843 218.503,231.01 210,204.5C 209.333,196.833 209.333,189.167 210,181.5C 210.879,176.864 212.545,172.531 215,168.5C 219.949,163.429 224.783,158.262 229.5,153C 235.722,149.877 242.056,147.377 248.5,145.5 Z"/></g>
<g><path style="opacity:1" fill="#ffffff" d="M 185.5,469.5 C 123.5,469.5 61.5,469.5 -0.5,469.5C -0.5,407.167 -0.5,344.833 -0.5,282.5C -0.166667,282.5 0.166667,282.5 0.5,282.5C 1.37866,287.342 2.87866,292.008 5,296.5C 20.8266,320.548 41.66,326.048 67.5,313C 79.377,301.744 85.7103,287.91 86.5,271.5C 121.5,257.667 156.5,243.833 191.5,230C 193.754,228.85 196.087,228.516 198.5,229C 206.451,240.122 216.118,249.288 227.5,256.5C 216.156,298.211 204.656,339.877 193,381.5C 187.697,383.544 182.197,385.377 176.5,387C 171.403,390.433 166.069,393.433 160.5,396C 156.336,403.163 152.836,410.663 150,418.5C 148.495,444.833 160.328,461.833 185.5,469.5 Z"/></g>
<g><path style="opacity:1" fill="#ffffff" d="M 469.5,304.5 C 469.5,359.5 469.5,414.5 469.5,469.5C 378.833,469.5 288.167,469.5 197.5,469.5C 228.613,459.281 239.779,438.281 231,406.5C 225.688,400.856 220.021,395.523 214,390.5C 224.458,347.447 235.958,304.614 248.5,262C 272.209,263.057 292.043,254.89 308,237.5C 333.416,253.459 358.916,269.292 384.5,285C 384.563,292.402 384.73,299.902 385,307.5C 385.806,312.013 387.139,316.346 389,320.5C 393.856,326.02 399.356,330.853 405.5,335C 413.778,340.32 422.778,342.32 432.5,341C 452.006,335.994 464.339,323.827 469.5,304.5 Z"/></g>
<g><path style="opacity:1" fill="#fcfcfc" d="M 37.5,255.5 C 60.3676,256.202 68.201,267.535 61,289.5C 51.9205,299.227 41.4205,301.061 29.5,295C 21.8882,288.111 19.3882,279.611 22,269.5C 24.8691,262.124 30.0358,257.457 37.5,255.5 Z"/></g>
<g><path style="opacity:1" fill="#fcfcfc" d="M 419.5,277.5 C 442.544,275.71 451.378,286.043 446,308.5C 443.768,313.731 439.935,317.231 434.5,319C 412.822,322.321 403.322,313.154 406,291.5C 407.92,288.661 409.587,285.661 411,282.5C 413.682,280.415 416.516,278.748 419.5,277.5 Z"/></g>
<g><path style="opacity:1" fill="#fcfcfc" d="M 184.5,405.5 C 204.979,403.149 214.479,412.149 213,432.5C 210.928,439.573 206.428,444.406 199.5,447C 181.652,450.635 171.986,443.468 170.5,425.5C 170.542,422.741 171.042,420.075 172,417.5C 175.097,412.227 179.264,408.227 184.5,405.5 Z"/></g>
</svg>
